{
  "accessors": [
    {
      "bufferView": 2,
      "componentType": 5126,
      "count": 1541,
      "max": [
        1.4114553928375244,
        2.042295217514038,
        5.2006916999816895
      ],
      "min": [
        -2.0478992462158203,
        -1.9088677167892456,
        0.0
      ],
      "type": "VEC3"
    },
    {
      "bufferView": 2,
      "byteOffset": 18492,
      "componentType": 5126,
      "count": 1541,
      "max": [
        0.9995090961456299,
        0.9906318783760071,
        0.9967844486236572
      ],
      "min": [
        -0.9904137849807739,
        -0.9914369583129883,
        -0.9985305666923523
      ],
      "type": "VEC3"
    },
    {
      "bufferView": 1,
      "componentType": 5126,
      "count": 1541,
      "max": [
        0.5462473630905151,
        0.7419638633728027
      ],
      "min": [
        0.06761497259140015,
        0.2606094479560852
      ],
      "type": "VEC2"
    },
    {
      "bufferView": 0,
      "componentType": 5125,
      "count": 2196,
      "type": "SCALAR"
    },
    {
      "bufferView": 2,
      "byteOffset": 36984,
      "componentType": 5126,
      "count": 3615,
      "max": [
        1.174538254737854,
        1.612797737121582,
        3.790809154510498
      ],
      "min": [
        -1.6434412002563477,
        -1.556606650352478,
        2.1911771297454834
      ],
      "type": "VEC3"
    },
    {
      "bufferView": 2,
      "byteOffset": 80364,
      "componentType": 5126,
      "count": 3615,
      "max": [
        0.9989535212516785,
        0.987541913986206,
        0.9997090101242065
      ],
      "min": [
        -0.9994473457336426,
        -0.989262580871582,
        -0.9996219277381897
      ],
      "type": "VEC3"
    },
    {
      "bufferView": 1,
      "byteOffset": 12328,
      "componentType": 5126,
      "count": 3615,
      "max": [
        0.30009591579437256,
        0.9218013882637024
      ],
      "min": [
        0.14417269825935364,
        0.7056176662445068
      ],
      "type": "VEC2"
    },
    {
      "bufferView": 0,
      "byteOffset": 8784,
      "componentType": 5125,
      "count": 5400,
      "type": "SCALAR"
    }
  ],
  "asset": {
    "extras": {
      "author": "Gunther (https://sketchfab.com/xisoka45)",
      "license": "CC-BY-4.0 (http://creativecommons.org/licenses/by/4.0/)",
      "source": "https://sketchfab.com/3d-models/apple-tree-low-poly-3d-model-956713eaab454decb4081fa38dfdb84b",
      "title": "Apple tree Low-poly 3D model"
    },
    "generator": "Sketchfab-12.63.0",
    "version": "2.0"
  },
  "bufferViews": [
    {
      "buffer": 0,
      "byteLength": 30384,
      "name": "floatBufferViews",
      "target": 34963
    },
    {
      "buffer": 0,
      "byteLength": 41248,
      "byteOffset": 30384,
      "byteStride": 8,
      "name": "floatBufferViews",
      "target": 34962
    },
    {
      "buffer": 0,
      "byteLength": 123744,
      "byteOffset": 71632,
      "byteStride": 12,
      "name": "floatBufferViews",
      "target": 34962
    }
  ],
  "buffers": [
    {
      "byteLength": 195376,
      "uri": "scene.bin"
    }
  ],
  "extensionsRequired": [
    "KHR_materials_pbrSpecularGlossiness"
  ],
  "extensionsUsed": [
    "KHR_materials_pbrSpecularGlossiness"
  ],
  "images": [
    {
      "uri": "textures/MaterialAppleTree.001_diffuse.jpeg"
    }
  ],
  "materials": [
    {
      "doubleSided": true,
      "extensions": {
        "KHR_materials_pbrSpecularGlossiness": {
          "diffuseFactor": [
            1.0,
            1.0,
            1.0,
            1.0
          ],
          "diffuseTexture": {
            "index": 0
          },
          "glossinessFactor": 0.1788854381999832,
          "specularFactor": [
            0.0,
            0.0,
            0.0
          ]
        }
      },
      "name": "MaterialAppleTree.001"
    },
    {
      "doubleSided": true,
      "extensions": {
        "KHR_materials_pbrSpecularGlossiness": {
          "diffuseFactor": [
            1.0,
            1.0,
            1.0,
            1.0
          ],
          "diffuseTexture": {
            "index": 0
          },
          "glossinessFactor": 0.1788854381999832,
          "specularFactor": [
            0.0,
            0.0,
            0.0
          ]
        }
      },
      "name": "MaterialApple.001"
    }
  ],
  "meshes": [
    {
      "name": "AppleTree_MaterialAppleTree.001_0",
      "primitives": [
        {
          "attributes": {
            "NORMAL": 1,
            "POSITION": 0,
            "TEXCOORD_0": 2
          },
          "indices": 3,
          "material": 0,
          "mode": 4
        }
      ]
    },
    {
      "name": "AppleTree_MaterialApple.001_0",
      "primitives": [
        {
          "attributes": {
            "NORMAL": 5,
            "POSITION": 4,
            "TEXCOORD_0": 6
          },
          "indices": 7,
          "material": 1,
          "mode": 4
        }
      ]
    }
  ],
  "nodes": [
    {
      "children": [
        1
      ],
      "matrix": [
        0.008333333767950535,
        0.0,
        0.0,
        0.0,
        0.0,
        3.190474059902882e-18,
        -0.008333333767950535,
        0.0,
        0.0,
        0.008333333767950535,
        3.190474059902882e-18,
        0.0,
        14.379319190979004,
        -1.6292243568479031e-06,
        -1.5968480110168457,
        1.0
      ],
      "name": "Sketchfab_model"
    },
    {
      "children": [
        2
      ],
      "matrix": [
        1.0,
        0.0,
        0.0,
        0.0,
        0.0,
        0.0,
        1.0,
        0.0,
        0.0,
        -1.0,
        0.0,
        0.0,
        0.0,
        0.0,
        0.0,
        1.0
      ],
      "name": "SceneRender.fbx"
    },
    {
      "children": [
        3,
        6,
        8
      ],
      "name": "RootNode"
    },
    {
      "children": [
        4
      ],
      "matrix": [
        -29.08647719990347,
        -5.518906457566863,
        -95.51711910171437,
        0.0,
        56.63930913109449,
        79.46723428563203,
        -21.83912397841966,
        0.0,
        77.11008775993375,
        -60.45246356562044,
        -19.98834696773717,
        0.0,
        407.6245422363281,
        590.38623046875,
        -100.54539489746094,
        1.0
      ],
      "name": "Light"
    },
    {
      "children": [
        5
      ],
      "matrix": [
        1.0,
        0.0,
        0.0,
        0.0,
        0.0,
        2.220446049250313e-16,
        1.0,
        0.0,
        0.0,
        -1.0,
        2.220446049250313e-16,
        0.0,
        0.0,
        0.0,
        0.0,
        1.0
      ],
      "name": "Object_4"
    },
    {
      "name": "Object_5"
    },
    {
      "children": [
        7
      ],
      "matrix": [
        -92.19882082861174,
        -9.827042188155064,
        -37.45406092329341,
        0.0,
        -9.104408774057331,
        99.51598239948328,
        -3.6987178615793557,
        0.0,
        37.63624836957677,
        -0.00020344519678326678,
        -92.64724933111692,
        0.0,
        1082.4151611328125,
        315.8408508300781,
        488.3413391113281,
        1.0
      ],
      "name": "Camera"
    },
    {
      "name": "Object_7"
    },
    {
      "children": [
        9,
        10
      ],
      "matrix": [
        84.74750109391775,
        -2.5103350286350985e-15,
        31.591798328903096,
        0.0,
        31.591798328903064,
        -3.953448314144523e-06,
        -84.74750109391768,
        0.0,
        1.3809211866357238e-06,
        90.44433593749991,
        -3.7044304472392577e-06,
        0.0,
        0.0,
        0.0,
        0.0,
        1.0
      ],
      "name": "AppleTree"
    },
    {
      "mesh": 0,
      "name": "AppleTree_MaterialAppleTree.001_0"
    },
    {
      "mesh": 1,
      "name": "AppleTree_MaterialApple.001_0"
    }
  ],
  "samplers": [
    {
      "magFilter": 9729,
      "minFilter": 9987,
      "wrapS": 10497,
      "wrapT": 10497
    }
  ],
  "scene": 0,
  "scenes": [
    {
      "name": "Sketchfab_Scene",
      "nodes": [
        0
      ]
    }
  ],
  "textures": [
    {
      "sampler": 0,
      "source": 0
    }
  ]
}
